<svg class="text-black w-4 h-4" viewBox="0 0 18 17" fill="none" xmlns="http://www.w3.org/2000/svg"><path d="M6.1296 6.47114L4.13391 5.55174C4.09828 5.51638 4.027 5.55174 3.99137 5.62247L1.92441 10.8913C1.88877 10.962 1.96005 11.0328 2.03132 11.0328H6.09396C6.16524 11.0328 6.20087 10.9974 6.20087 10.9267V6.54186C6.20087 6.5065 6.16524 6.47114 6.1296 6.47114ZM17.9255 11.8107C17.8542 11.74 17.7473 11.74 17.6404 11.7754L17.391 11.8814C16.1793 12.4826 14.8251 12.7655 13.4709 12.7655C13.3996 12.7655 13.3639 12.8008 13.3639 12.8362C13.2214 13.4727 12.6868 13.9324 12.0097 13.9324H9.23004V11.6339H9.26567C9.44386 11.6693 9.58641 11.6693 9.76459 11.7046C10.9406 11.8814 11.5108 12.4119 11.7603 12.6594L11.7959 12.6947C11.8315 12.7301 11.9028 12.7301 11.9385 12.6947C11.9741 12.6594 12.0097 12.624 12.081 12.5887C12.5087 12.3058 13.5065 11.7046 13.5065 8.5221C13.5065 5.26885 11.0119 3.07644 10.7268 2.935L9.26567 2.82891H9.23004V1.90952C9.51513 1.73271 9.72896 1.41446 9.72896 1.02548C9.72896 0.459699 9.30131 0 8.73111 0C8.16092 0 7.73327 0.459699 7.73327 1.02548C7.73327 1.3791 7.91146 1.69735 8.23219 1.87416V2.65211L6.1296 2.43994C6.02269 2.43994 5.95141 2.54602 6.02269 2.61674C6.37906 3.18253 7.34126 4.9506 7.41254 7.6027C7.48381 10.078 7.0918 11.2449 6.91362 11.6693C6.87798 11.7046 6.87798 11.74 6.91362 11.7754C6.94925 11.8107 6.98489 11.8107 7.02053 11.8107C7.26999 11.7754 7.69763 11.7046 8.23219 11.6693V13.9678H5.91577C5.16739 13.9678 4.52592 13.3313 4.52592 12.5887V12.0229C4.52592 11.9522 4.49029 11.9168 4.41901 11.9168H0.106911C0.0712741 11.9168 0 11.9522 0 12.0229C0 12.129 0 12.235 0 12.3411C0 13.9324 0.463284 15.3822 1.2473 16.6552C1.38985 16.8674 1.63931 16.9735 1.85313 16.8674L2.31642 16.6552C2.67279 16.4784 3.10044 16.4784 3.49245 16.6552L3.99137 16.8674C4.34774 17.0442 4.77538 17.0442 5.16739 16.8674L5.66632 16.6552C6.05832 16.4784 6.45033 16.4784 6.84234 16.6552L7.34126 16.8674C7.73327 17.0442 8.12528 17.0442 8.51729 16.8674L9.01621 16.6552C9.40822 16.4784 9.80023 16.4784 10.1922 16.6552L10.6912 16.8674C11.0832 17.0442 11.4752 17.0442 11.8672 16.8674L12.3661 16.6552C12.7581 16.4784 13.1501 16.4784 13.5421 16.6552L14.0411 16.8674C14.3618 17.0088 14.7182 16.832 14.8964 16.5138C15.1814 16.0541 15.4309 15.5237 15.6091 15.0286C16.0011 13.8617 16.7138 12.7655 17.8186 12.235C17.9255 12.1997 17.9612 12.0936 17.9612 11.9875C18.0324 11.9522 17.9968 11.8461 17.9255 11.8107Z" fill="#fff"></path></svg>